<svg width="93" height="46" viewBox="0 0 93 46" fill="none" xmlns="http://www.w3.org/2000/svg">
<path d="M12.288 45.504C9.6 45.504 7.296 45.0987 5.376 44.288C3.49867 43.4773 1.70667 42.1333 0 40.256L2.048 38.08C3.328 39.6587 4.77867 40.832 6.4 41.6C8.02133 42.3253 9.96267 42.688 12.224 42.688C15.5093 42.688 18.048 41.8347 19.84 40.128C21.632 38.4213 22.528 35.9893 22.528 32.832V0H25.856V32.96C25.856 36.928 24.6613 40.0213 22.272 42.24C19.9253 44.416 16.5973 45.504 12.288 45.504Z" fill="white"/>
<path d="M84.8505 0L74.6105 44.8H72.1145C69.6398 44.8 67.6772 44.5013 66.2265 43.904C64.8185 43.3067 63.6452 42.304 62.7065 40.896C61.7678 39.488 60.8292 37.376 59.8905 34.56L56.7545 25.216L53.6825 34.56C52.7865 37.2907 51.8478 39.3813 50.8665 40.832C49.8852 42.2827 48.6692 43.3067 47.2185 43.904C45.7678 44.5013 43.8478 44.8 41.4585 44.8H38.9625L28.7225 0H37.1705L45.2985 35.968C45.6825 35.4987 46.1092 34.6027 46.5785 33.28L56.7545 4.736L66.9945 33.28C67.4638 34.6027 67.8905 35.4987 68.2745 35.968L76.4025 0H84.8505Z" fill="white"/>
<path d="M90.153 45.504C89.385 45.504 88.745 45.248 88.233 44.736C87.721 44.1813 87.465 43.52 87.465 42.752C87.465 42.0267 87.721 41.408 88.233 40.896C88.745 40.3413 89.385 40.064 90.153 40.064C90.8783 40.064 91.497 40.3413 92.009 40.896C92.5637 41.408 92.841 42.0267 92.841 42.752C92.841 43.52 92.5637 44.1813 92.009 44.736C91.497 45.248 90.8783 45.504 90.153 45.504Z" fill="white"/>
</svg>
